# xmcd
#
# Track frame offsets:
#	150
#	14623
#	28295
#	54004
#	70574
#	85189
#	101382
#	117278
#	132895
#	149131
#	160657
#	178487
#	190001
#	204819
#	218065
#	235121
#	253242
#
# Disc length: 3571 seconds
# Revision: 0
# Processed by: cddbd v1.5.2PL0 Copyright (c) Steve Scherf et al.
# Submitted via: dBpowerAMP V12.0
#
DISCID=eb0df111
DTITLE=Willie Buck - Cell Phone Man
DYEAR=2012
DGENRE=Blues
TTITLE0=Doin' Good and Bad At the Same Time
TTITLE1=Darling I Miss You So
TTITLE2=Strange Woman
TTITLE3=Cell Phone Man
TTITLE4=I Want My Baby
TTITLE5=I Don't Know Why
TTITLE6=Two Women Talking
TTITLE7=Two Trains Running
TTITLE8=The Love We Share
TTITLE9=Going Down Main Street
TTITLE10=Streamline Woman
TTITLE11=What's the Matter With the Mill
TTITLE12=Tow Truck Man
TTITLE13=Tried To Work Something Out With You
TTITLE14=My Eyes Keep Me In Trouble
TTITLE15=I Wanna Talk To My Baby
TTITLE16=Blow Wind Blow
EXTD=
EXTT0=
EXTT1=
EXTT2=
EXTT3=
EXTT4=
EXTT5=
EXTT6=
EXTT7=
EXTT8=
EXTT9=
EXTT10=
EXTT11=
EXTT12=
EXTT13=
EXTT14=
EXTT15=
EXTT16=
PLAYORDER=
